# xmcd
#
# Track frame offsets:
#	150
#	21128
#	33027
#	48644
#	63399
#	75500
#	90559
#	102812
#	116290
#	131316
#	143375
#	155617
#	169900
#	181225
#	198098
#	211282
#	231578
#	251071
#	265468
#	280147
#	294857
#	307739
#	327723
#	343166
#
# Disc length: 4768 seconds
#
# Revision: 0
# Processed by: cddbd v1.5.2PL0 Copyright (c) Steve Scherf et al.
# Submitted via: dBpowerAMP V4.0
#
DISCID=4d129e18
DTITLE=Frank Sinatra - My way the best of frank
DYEAR=1997
DGENRE=
TTITLE0=My way
TTITLE1=Strangers in the night
TTITLE2=Theme from New-York New-York
TTITLE3=I get a kick out of you
TTITLE4=Somethin' stupid
TTITLE5=Moon river
TTITLE6=What now my love
TTITLE7=Summer wind
TTITLE8=For once in my life
TTITLE9=Love and marriage
TTITLE10=They can't take that away from me
TTITLE11=My kind of town
TTITLE12=Fly me to the moon
TTITLE13=I've got you under my skin
TTITLE14=The best is yet to come
TTITLE15=It was a very good year
TTITLE16=Come fly with me
TTITLE17=thet's life
TTITLE18=The girl from ipanema
TTITLE19=The lady is a tramp
TTITLE20=Bad, bad Leroy Brown
TTITLE21=Mack the knife
TTITLE22=Love's been good to me
TTITLE23=L.A. is my lady
EXTD=
EXTT0=
EXTT1=
EXTT2=
EXTT3=
EXTT4=
EXTT5=
EXTT6=
EXTT7=
EXTT8=
EXTT9=
EXTT10=
EXTT11=
EXTT12=
EXTT13=
EXTT14=
EXTT15=
EXTT16=
EXTT17=
EXTT18=
EXTT19=
EXTT20=
EXTT21=
EXTT22=
EXTT23=
PLAYORDER=
